<?xml version="1.0" encoding="iso-8859-1"?>
<!-- Generator: Adobe Illustrator 19.0.0, SVG Export Plug-In . SVG Version: 6.00 Build 0)  -->
<svg version="1.1" id="Layer_1" xmlns="http://www.w3.org/2000/svg" xmlns:xlink="http://www.w3.org/1999/xlink" x="0px" y="0px"
	 viewBox="0 0 512 512" style="enable-background:new 0 0 512 512;" xml:space="preserve">
<path style="fill:#FF8163;" d="M256.282,88.888c-1.339,0-2.624-0.533-3.571-1.484l-34.858-34.95
	c-4.927-4.935-7.641-11.499-7.641-18.481s2.715-13.545,7.642-18.482c4.927-4.936,11.479-7.656,18.448-7.656
	c6.971,0,13.522,2.721,18.45,7.656l1.531,1.536l1.532-1.536c4.928-4.936,11.478-7.656,18.45-7.656
	c6.968,0,13.521,2.721,18.449,7.656c4.927,4.937,7.641,11.5,7.641,18.482s-2.715,13.546-7.641,18.482l-34.858,34.948
	C258.909,88.357,257.624,88.888,256.282,88.888z"/>
<g>
	<path style="fill:#FFD3CA;" d="M339.353,135.565c-0.789,0-1.546-0.316-2.107-0.875l-20.554-20.61
		c-2.906-2.91-4.507-6.78-4.507-10.897c0-4.116,1.601-7.987,4.507-10.898c2.905-2.911,6.769-4.515,10.878-4.515
		c4.111,0,7.974,1.604,10.879,4.515l0.903,0.905l0.903-0.905c2.906-2.911,6.768-4.515,10.879-4.515c4.11,0,7.973,1.604,10.878,4.515
		c2.905,2.911,4.506,6.781,4.506,10.898c0,4.116-1.601,7.987-4.506,10.898l-20.554,20.609
		C340.901,135.251,340.144,135.565,339.353,135.565z"/>
	<path style="fill:#FFD3CA;" d="M176.709,121.724c-0.738,0-1.445-0.295-1.968-0.817l-19.201-19.251
		c-2.715-2.719-4.209-6.334-4.209-10.179s1.495-7.461,4.21-10.18c2.714-2.72,6.323-4.218,10.162-4.218
		c3.839,0,7.449,1.498,10.163,4.218l0.843,0.845l0.843-0.845c2.715-2.72,6.323-4.218,10.163-4.218c3.838,0,7.448,1.498,10.163,4.218
		c2.714,2.72,4.209,6.335,4.209,10.18c0,3.845-1.495,7.461-4.209,10.18l-19.2,19.251
		C178.155,121.43,177.447,121.724,176.709,121.724z"/>
</g>
<path style="fill:#C9F0F4;" d="M393.272,332.222c-2.194,0-4.219-1.184-5.294-3.097c-4.528-8.056-13.019-13.06-22.159-13.06
	c-9.142,0-17.633,5.004-22.16,13.059c-1.075,1.914-3.099,3.098-5.294,3.098c-2.195,0-4.22-1.184-5.294-3.098
	c-4.528-8.055-13.018-13.059-22.159-13.059s-17.632,5.004-22.159,13.059c-1.075,1.914-3.099,3.098-5.294,3.098
	c-2.195,0-4.219-1.184-5.294-3.097c-4.528-8.056-13.018-13.06-22.159-13.06c-9.141,0-17.633,5.004-22.159,13.059
	c-1.075,1.914-3.1,3.098-5.294,3.098c-2.195,0-4.22-1.184-5.294-3.098c-4.528-8.055-13.018-13.059-22.159-13.059
	c-9.142,0-17.632,5.004-22.159,13.059c-1.075,1.914-3.099,3.098-5.295,3.098s-4.219-1.184-5.294-3.098
	c-4.528-8.055-13.019-13.059-22.16-13.059s-17.632,5.004-22.159,13.06c-1.075,1.913-3.1,3.097-5.295,3.097l0,0
	c-2.195,0-4.22-1.184-5.294-3.098c-4.528-8.055-13.018-13.059-22.159-13.059c-5.894,0-11.641,2.081-16.182,5.862
	c-1.115,0.93-2.496,1.407-3.888,1.407c-0.979,0-1.962-0.236-2.863-0.717c-2.181-1.166-3.438-3.539-3.176-5.997
	c4.98-46.825,27.037-90.087,62.11-121.817c35.327-31.962,81.042-49.565,128.725-49.565s93.398,17.602,128.725,49.565
	c35.072,31.73,57.129,74.993,62.11,121.817c0.261,2.46-0.995,4.831-3.175,5.997c-0.901,0.482-1.885,0.719-2.863,0.719
	c-1.392,0-2.773-0.478-3.888-1.407c-4.541-3.78-10.287-5.863-16.181-5.863c-9.141,0-17.632,5.004-22.159,13.059
	C397.493,331.039,395.468,332.222,393.272,332.222z"/>
<path style="opacity:0.1;enable-background:new    ;" d="M267.956,77.917c-1.339,0-2.624-0.533-3.571-1.484l-34.858-34.95
	c-4.927-4.935-7.641-11.499-7.641-18.481c0-4.509,1.138-8.84,3.267-12.675c-2.677,1.27-5.144,3.004-7.3,5.164
	c-4.928,4.937-7.642,11.5-7.642,18.482s2.715,13.546,7.641,18.481l34.858,34.95c0.948,0.951,2.233,1.484,3.571,1.484
	c1.342,0,2.627-0.533,3.573-1.484l9.766-9.791C269.088,77.801,268.53,77.917,267.956,77.917z"/>
<path style="opacity:0.1;enable-background:new    ;" d="M351.026,124.594c-0.789,0-1.546-0.316-2.106-0.875l-20.553-20.609
	c-2.906-2.91-4.507-6.78-4.507-10.897c0-1.412,0.202-2.791,0.566-4.116c-2.91,0.603-5.585,2.035-7.734,4.189
	c-2.906,2.911-4.507,6.781-4.507,10.898c0,4.116,1.601,7.987,4.507,10.897l20.554,20.61c0.559,0.559,1.317,0.875,2.107,0.875
	c0.791,0,1.549-0.316,2.107-0.875l10.125-10.152C351.402,124.574,351.215,124.594,351.026,124.594z"/>
<path style="opacity:0.1;enable-background:new    ;" d="M188.383,110.753c-0.738,0-1.445-0.295-1.968-0.817l-19.201-19.251
	c-2.715-2.719-4.209-6.334-4.209-10.179c0-1.1,0.136-2.178,0.374-3.225c-2.955,0.48-5.682,1.854-7.839,4.017
	c-2.715,2.72-4.21,6.335-4.21,10.18c0,3.845,1.495,7.461,4.209,10.179l19.201,19.251c0.522,0.522,1.23,0.817,1.968,0.817
	c0.739,0,1.446-0.295,1.968-0.817l10.174-10.2C188.696,110.733,188.541,110.753,188.383,110.753z"/>
<g style="opacity:0.1;">
	<path d="M97.907,316.621c4.98-46.825,27.038-90.087,62.109-121.817c31.26-28.283,70.659-45.312,112.355-48.859
		c-5.422-0.461-10.883-0.705-16.37-0.705c-47.683,0-93.398,17.602-128.725,49.565c-35.072,31.73-57.129,74.992-62.11,121.817
		c-0.261,2.459,0.995,4.831,3.176,5.997c0.9,0.482,1.884,0.717,2.863,0.717c1.392,0,2.772-0.478,3.888-1.407
		c4.541-3.78,10.288-5.862,16.182-5.862c2.264,0,4.488,0.308,6.622,0.892C97.902,316.845,97.894,316.734,97.907,316.621z"/>
</g>
<path style="fill:#6FA7AD;" d="M280.129,504.163c-21.692,0-39.339-17.645-39.339-39.334v-27.718c0-5.793,4.697-10.489,10.49-10.489
	h5.245c5.794,0,10.49,4.696,10.49,10.489v27.718c0,7.23,5.883,13.111,13.113,13.111s13.113-5.882,13.113-13.111v-17.228
	c0-7.23,5.883-13.111,13.113-13.111c7.231,0,13.112,5.882,13.112,13.111v17.228C319.468,486.518,301.821,504.163,280.129,504.163z"
	/>
<path d="M247.16,92.937c2.436,2.442,5.675,3.788,9.122,3.788c3.452,0,6.694-1.347,9.121-3.786l12.141-12.172
	c3.056-3.065,3.05-8.027-0.015-11.082c-3.065-3.057-8.027-3.051-11.082,0.015l-10.165,10.191L223.397,46.92
	c-3.45-3.457-5.351-8.053-5.351-12.944c0-4.89,1.901-9.488,5.352-12.945c3.449-3.455,8.031-5.357,12.903-5.357
	c4.873,0,9.455,1.902,12.899,5.352l1.531,1.536c1.47,1.475,3.466,2.304,5.548,2.305c0.001,0,0.002,0,0.002,0
	c2.082,0,4.078-0.828,5.548-2.302l1.53-1.534c3.448-3.454,8.031-5.356,12.903-5.356s9.454,1.903,12.902,5.355
	c3.451,3.459,5.352,8.055,5.352,12.946s-1.901,9.489-5.352,12.947c-3.057,3.064-3.052,8.026,0.011,11.082
	c3.063,3.056,8.025,3.052,11.082-0.011c6.404-6.418,9.931-14.947,9.931-24.018s-3.527-17.6-9.932-24.019
	C293.848,3.536,285.327,0,276.264,0c-7.281,0-14.213,2.282-19.981,6.508C250.515,2.282,243.583,0,236.302,0
	c-9.063,0-17.586,3.536-23.994,9.957c-6.405,6.417-9.933,14.947-9.933,24.018c0,9.073,3.528,17.602,9.93,24.015L247.16,92.937z"/>
<path d="M311.143,119.616l20.561,20.616c2.044,2.045,4.761,3.17,7.648,3.17c2.852,0,5.641-1.158,7.655-3.176l20.553-20.606
	c4.381-4.392,6.795-10.227,6.795-16.434c0-6.206-2.414-12.042-6.795-16.434c-4.388-4.396-10.22-6.816-16.426-6.816
	c-4.21,0-8.249,1.114-11.781,3.204c-3.533-2.09-7.572-3.204-11.782-3.204c-6.206,0-12.038,2.421-16.425,6.816
	c-4.382,4.392-6.796,10.227-6.796,16.434C304.349,109.392,306.763,115.228,311.143,119.616z M322.24,97.822
	c1.445-1.448,3.288-2.214,5.33-2.214c2.043,0,3.887,0.766,5.331,2.212l0.903,0.905c1.47,1.474,3.466,2.303,5.547,2.303
	c0.001,0,0.001,0,0.001,0c2.082,0,4.078-0.829,5.548-2.302l0.903-0.904c1.446-1.449,3.289-2.215,5.332-2.215
	c2.042,0,3.886,0.766,5.331,2.214c1.429,1.433,2.216,3.336,2.216,5.362s-0.787,3.93-2.217,5.363l-17.111,17.156l-17.114-17.16
	c-1.428-1.43-2.215-3.334-2.215-5.359C320.023,101.159,320.81,99.255,322.24,97.822z"/>
<path d="M169.197,126.446c1.978,1.98,4.716,3.115,7.511,3.115c2.798,0,5.537-1.137,7.516-3.12l19.2-19.25
	c4.19-4.199,6.498-9.78,6.498-15.715s-2.307-11.516-6.498-15.716c-4.195-4.204-9.775-6.519-15.709-6.519
	c-3.923,0-7.69,1.011-11.006,2.912c-3.315-1.9-7.083-2.912-11.007-2.912c-5.935,0-11.515,2.315-15.708,6.518
	c-4.192,4.199-6.5,9.78-6.5,15.717c0,5.936,2.308,11.518,6.497,15.714L169.197,126.446z M161.089,86.831
	c1.252-1.254,2.847-1.916,4.614-1.916c1.768,0,3.364,0.662,4.615,1.916l0.843,0.845c1.47,1.474,3.466,2.302,5.548,2.302
	c2.081,0,4.078-0.829,5.548-2.302l0.842-0.844c1.252-1.255,2.848-1.917,4.615-1.917c1.768,0,3.364,0.662,4.615,1.916
	c1.256,1.259,1.919,2.865,1.919,4.645c0,1.781-0.664,3.387-1.921,4.646l-15.62,15.661l-15.622-15.664
	c-1.255-1.257-1.918-2.863-1.918-4.642C159.168,89.696,159.832,88.09,161.089,86.831z"/>
<path d="M454.628,315.792c-5.184-48.743-28.142-93.775-64.645-126.8c-34.83-31.513-79.362-49.603-126.146-51.426v-18.267
	c0-4.328-3.509-7.837-7.837-7.837c-4.328,0-7.837,3.509-7.837,7.837v18.267c-46.783,1.823-91.317,19.914-126.146,51.426
	c-36.502,33.024-59.46,78.056-64.645,126.8c-0.602,5.659,2.254,11.052,7.271,13.735c2.01,1.076,4.279,1.645,6.56,1.645
	c3.249,0,6.41-1.145,8.901-3.221c3.136-2.61,7.102-4.048,11.168-4.048c6.312,0,12.186,3.472,15.327,9.059
	c2.459,4.378,7.105,7.098,12.128,7.098c5.021,0,9.666-2.719,12.126-7.095c3.142-5.59,9.015-9.062,15.328-9.062
	c6.313,0,12.187,3.472,15.327,9.059c2.459,4.378,7.105,7.098,12.128,7.098s9.669-2.72,12.126-7.095
	c3.142-5.59,9.015-9.062,15.328-9.062c6.313,0,12.186,3.472,15.327,9.059c2.459,4.378,7.105,7.098,12.128,7.098
	c5.021,0,9.667-2.719,12.126-7.096c1.352-2.405,3.212-4.415,5.393-5.929v37.634c0,4.328,3.509,7.837,7.837,7.837
	c4.328,0,7.837-3.509,7.837-7.837v-39.783c3.988,1.403,7.432,4.242,9.589,8.079c2.46,4.376,7.106,7.094,12.126,7.094
	c5.023,0,9.669-2.72,12.126-7.095c3.142-5.59,9.014-9.062,15.328-9.062s12.187,3.472,15.327,9.059
	c2.459,4.378,7.105,7.098,12.128,7.098c5.022,0,9.668-2.72,12.126-7.095c3.142-5.59,9.015-9.062,15.329-9.062
	c6.313,0,12.186,3.473,15.328,9.063c2.46,4.376,7.106,7.094,12.126,7.094c5.023,0,9.669-2.72,12.126-7.095
	c3.143-5.59,9.015-9.062,15.328-9.062c4.066,0,8.031,1.438,11.165,4.046c2.494,2.079,5.657,3.225,8.906,3.225
	c2.28,0,4.547-0.569,6.559-1.645C452.375,326.843,455.23,321.452,454.628,315.792z M420.727,308.228
	c-10.998,0-21.271,5.519-27.455,14.581c-6.182-9.06-16.454-14.581-27.454-14.581c-11,0-21.272,5.519-27.455,14.579
	c-6.182-9.059-16.455-14.579-27.455-14.579c-10.999,0-21.271,5.519-27.454,14.581c-6.182-9.06-16.454-14.581-27.454-14.581
	c-11,0-21.272,5.519-27.454,14.579c-6.182-9.059-16.455-14.579-27.454-14.579s-21.271,5.518-27.454,14.579
	c-6.182-9.059-16.455-14.579-27.455-14.579c-11,0-21.272,5.52-27.454,14.581c-6.182-9.06-16.455-14.581-27.454-14.581
	c-6.334,0-12.538,1.835-17.847,5.227c1.257-9.775,3.299-19.373,6.071-28.721h298.058c4.328,0,7.837-3.509,7.837-7.837
	c0-4.328-3.509-7.837-7.837-7.837H84.933c2.707-6.799,5.818-13.428,9.317-19.853h223.748c4.328,0,7.837-3.509,7.837-7.837
	c0-4.328-3.509-7.837-7.837-7.837H103.831c3.954-5.796,8.251-11.378,12.87-16.718h173.084c4.328,0,7.837-3.509,7.837-7.837
	c0-4.328-3.509-7.837-7.837-7.837H131.962c0.192-0.175,0.378-0.354,0.572-0.529c6.543-5.919,13.46-11.319,20.689-16.19h84.318
	c4.328,0,7.837-3.509,7.837-7.837c0-4.328-3.509-7.837-7.837-7.837h-55.94c23.218-10.259,48.505-15.676,74.4-15.676
	s51.181,5.417,74.4,15.676h-62.558c-4.328,0-7.837,3.509-7.837,7.837c0,4.328,3.509,7.837,7.837,7.837h90.936
	c7.228,4.87,14.146,10.27,20.689,16.19c0.193,0.174,0.379,0.353,0.572,0.529h-59.952c-4.328,0-7.837,3.509-7.837,7.837
	c0,4.328,3.509,7.837,7.837,7.837h75.213c4.619,5.34,8.916,10.922,12.869,16.718h-57.78c-4.328,0-7.837,3.509-7.837,7.837
	c0,4.328,3.509,7.837,7.837,7.837h67.361c3.499,6.425,6.61,13.054,9.317,19.853h-24.434c-4.328,0-7.837,3.509-7.837,7.837
	c0,4.328,3.509,7.837,7.837,7.837h29.867c2.772,9.348,4.814,18.946,6.071,28.722C433.266,310.064,427.061,308.228,420.727,308.228z"
	/>
<path d="M306.356,426.653c-11.552,0-20.95,9.398-20.95,20.948v17.228c0,2.908-2.367,5.275-5.277,5.275
	c-2.91,0-5.277-2.367-5.277-5.275v-27.718c0-8.292-5.541-15.307-13.112-17.56v-28.76c0-4.328-3.509-7.837-7.837-7.837
	s-7.837,3.509-7.837,7.837v28.76c-7.572,2.253-13.113,9.267-13.113,17.56v27.718c0,26.01,21.163,47.171,47.176,47.171
	s47.176-21.16,47.176-47.171v-17.228C327.305,436.051,317.907,426.653,306.356,426.653z M311.631,464.829
	c0,17.367-14.132,31.497-31.503,31.497c-17.37,0-31.503-14.129-31.503-31.497v-27.718c0-1.462,1.19-2.652,2.653-2.652h5.245
	c1.463,0,2.653,1.19,2.653,2.652v27.718c0,11.55,9.398,20.948,20.95,20.948c11.552,0,20.95-9.398,20.95-20.948v-17.228
	c0-2.908,2.367-5.275,5.277-5.275c2.909,0,5.276,2.367,5.276,5.275v17.228H311.631z"/>
<g>
</g>
<g>
</g>
<g>
</g>
<g>
</g>
<g>
</g>
<g>
</g>
<g>
</g>
<g>
</g>
<g>
</g>
<g>
</g>
<g>
</g>
<g>
</g>
<g>
</g>
<g>
</g>
<g>
</g>
</svg>
